<?xml version="1.0" standalone="no"?>
<!DOCTYPE svg PUBLIC "-//W3C//DTD SVG 20010904//EN"
 "http://www.w3.org/TR/2001/REC-SVG-20010904/DTD/svg10.dtd">
<svg version="1.0" xmlns="http://www.w3.org/2000/svg"
 width="2048.000000pt" height="2048.000000pt" viewBox="0 0 2048.000000 2048.000000"
 preserveAspectRatio="xMidYMid meet">
<metadata>
Created by potrace 1.14, written by Peter Selinger 2001-2017
</metadata>
<g transform="translate(0.000000,2048.000000) scale(0.100000,-0.100000)"
fill="#000000" stroke="none">
<path d="M9848 20475 c-2 -1 -68 -6 -148 -9 -80 -4 -163 -8 -185 -11 -22 -2
-71 -6 -110 -10 -38 -3 -104 -8 -145 -12 -41 -3 -90 -7 -107 -7 -18 -1 -33 -3
-33 -6 0 -3 -10 -5 -22 -6 -13 0 -50 -3 -83 -8 -33 -4 -73 -9 -90 -11 -158
-18 -531 -78 -655 -105 -25 -5 -56 -12 -70 -14 -46 -8 -304 -65 -390 -87 -47
-11 -92 -22 -100 -24 -152 -34 -593 -167 -855 -258 -90 -32 -391 -145 -430
-162 -16 -7 -79 -33 -140 -58 -60 -25 -144 -61 -185 -79 -41 -19 -104 -48
-140 -63 -90 -40 -527 -259 -603 -302 -34 -19 -91 -51 -127 -71 -150 -83 -589
-351 -645 -394 -5 -5 -80 -56 -165 -114 -403 -276 -833 -624 -1189 -959 -241
-228 -604 -607 -746 -779 -22 -26 -47 -56 -56 -65 -50 -51 -364 -449 -459
-582 -430 -599 -766 -1171 -1034 -1759 -56 -122 -66 -144 -100 -222 -9 -21
-22 -53 -30 -70 -115 -264 -348 -915 -391 -1093 -3 -11 -29 -109 -59 -218 -31
-109 -67 -250 -82 -315 -26 -119 -31 -139 -38 -169 -23 -97 -92 -462 -101
-532 -3 -24 -7 -47 -9 -50 -3 -3 -7 -31 -10 -61 -3 -30 -8 -64 -10 -76 -4 -22
-16 -110 -21 -154 -6 -55 -17 -146 -20 -170 -2 -14 -7 -54 -10 -90 -4 -36 -8
-81 -11 -100 -2 -19 -6 -75 -10 -125 -3 -49 -7 -106 -9 -125 -27 -269 -26
-1086 0 -1425 2 -27 6 -84 10 -125 3 -41 7 -95 10 -120 13 -137 16 -168 20
-200 2 -19 7 -57 10 -85 5 -44 22 -164 40 -290 4 -22 8 -51 10 -65 5 -41 26
-160 41 -237 8 -39 17 -88 20 -109 7 -43 4 -32 44 -214 17 -80 34 -156 36
-170 9 -46 82 -324 127 -485 195 -692 489 -1413 847 -2073 44 -81 85 -154 90
-162 6 -8 13 -22 17 -30 13 -28 255 -425 269 -441 8 -8 14 -18 14 -21 0 -10
209 -316 319 -468 48 -67 186 -251 218 -290 75 -95 199 -247 207 -256 6 -6 29
-33 51 -60 318 -387 891 -953 1311 -1294 20 -16 162 -129 179 -142 6 -4 35
-27 65 -51 59 -47 240 -183 276 -207 13 -8 89 -61 171 -118 207 -143 520 -346
558 -361 5 -2 39 -22 75 -44 36 -22 88 -53 115 -68 28 -15 77 -43 110 -62 91
-53 536 -279 650 -330 55 -25 130 -59 168 -76 37 -17 69 -31 72 -31 2 0 32
-13 67 -29 93 -42 342 -139 543 -211 50 -18 117 -43 150 -55 217 -82 768 -235
1115 -310 72 -16 272 -55 300 -60 19 -3 55 -10 80 -15 47 -10 87 -16 155 -26
22 -2 60 -9 85 -14 25 -5 68 -12 95 -15 28 -4 64 -8 80 -11 47 -6 151 -19 240
-29 28 -3 68 -7 90 -10 22 -3 67 -7 100 -10 33 -3 87 -7 120 -10 383 -36 1245
-41 1565 -11 19 2 73 7 120 11 47 3 101 8 120 10 19 2 64 6 100 10 36 4 76 8
90 10 14 2 50 6 80 10 30 3 71 8 90 10 19 3 58 7 85 10 28 3 57 7 65 10 8 2
37 7 63 10 59 6 208 31 302 50 39 8 86 17 105 20 19 3 80 15 135 26 55 12 109
23 120 25 11 2 67 15 125 29 58 14 116 27 130 30 14 3 33 8 42 11 9 3 25 7 35
9 207 43 907 265 1108 350 17 7 68 27 115 45 386 148 1086 484 1339 644 22 15
43 26 45 26 4 0 216 127 343 206 171 106 538 363 733 512 87 67 316 249 336
267 6 6 35 30 64 55 356 299 791 726 1090 1070 511 586 958 1229 1316 1893
116 214 308 611 389 802 7 17 20 46 28 65 8 19 34 82 57 140 23 58 46 114 51
125 9 20 20 50 100 270 68 187 175 521 230 720 10 39 21 77 23 85 12 41 96
389 100 413 3 15 7 35 10 45 3 9 7 28 10 42 3 14 19 95 36 180 16 85 33 171
36 190 3 19 10 62 16 95 10 62 11 68 23 150 9 68 15 105 20 135 7 40 13 90 20
158 4 35 8 71 10 80 1 9 6 51 10 92 3 41 8 91 10 110 2 19 7 76 10 125 4 50 9
106 11 125 25 255 25 1148 -1 1425 -5 57 -16 200 -21 265 -2 30 -6 69 -9 85
-4 27 -12 92 -20 170 -4 44 -17 147 -20 167 -2 9 -6 38 -10 65 -4 26 -9 59
-11 73 -2 14 -6 43 -9 65 -3 22 -9 54 -12 70 -3 17 -7 40 -9 52 -2 19 -15 97
-19 113 -1 3 -5 25 -9 50 -5 25 -10 54 -12 65 -21 99 -26 123 -30 145 -3 14
-11 53 -19 86 -16 70 -21 90 -35 154 -5 25 -11 54 -14 65 -16 75 -100 385
-150 550 -79 269 -255 767 -321 910 -7 17 -26 59 -40 95 -148 354 -352 767
-555 1125 -12 22 -66 111 -119 198 -53 87 -100 166 -106 176 -18 32 -99 156
-105 161 -3 3 -17 23 -30 45 -46 75 -283 409 -388 545 -215 279 -390 487 -631
749 -99 107 -442 452 -528 531 -129 118 -221 200 -253 226 -19 16 -42 36 -50
44 -8 9 -44 40 -79 69 -35 29 -70 58 -77 64 -16 14 -12 11 -139 112 -55 44
-145 113 -200 155 -55 41 -104 79 -110 83 -31 24 -181 131 -250 177 -44 30
-82 57 -85 60 -12 13 -327 215 -470 300 -305 183 -713 399 -985 522 -201 91
-402 178 -411 178 -3 0 -29 10 -57 23 -29 13 -142 56 -252 97 -110 40 -209 76
-220 81 -23 10 -107 37 -260 86 -523 165 -1170 311 -1655 373 -47 6 -96 13
-110 15 -14 2 -50 7 -80 10 -30 4 -66 9 -80 11 -14 1 -54 6 -90 9 -36 3 -85 7
-110 10 -25 3 -76 7 -115 10 -38 3 -97 8 -130 11 -33 3 -94 8 -135 11 -86 5
-967 13 -972 8z"/>
</g>
</svg>
