<?xml version="1.0" standalone="no"?>
<!DOCTYPE svg PUBLIC "-//W3C//DTD SVG 20010904//EN"
 "http://www.w3.org/TR/2001/REC-SVG-20010904/DTD/svg10.dtd">
<svg version="1.0" xmlns="http://www.w3.org/2000/svg"
 width="100.000000pt" height="100.000000pt" viewBox="0 0 100.000000 100.000000"
 preserveAspectRatio="xMidYMid meet">
<metadata>
Created by potrace 1.14, written by Peter Selinger 2001-2017
</metadata>
<g transform="translate(0.000000,100.000000) scale(0.100000,-0.100000)"
fill="#000000" stroke="none">
<path d="M282 820 c-12 -13 -41 -24 -82 -31 -127 -20 -156 -44 -147 -121 9
-73 41 -104 115 -112 l57 -7 37 -62 c36 -62 37 -63 31 -146 -5 -73 -10 -88
-34 -116 -34 -38 -24 -55 32 -55 55 0 69 9 89 54 15 33 19 38 25 23 5 -12 2
-22 -10 -31 -34 -25 -11 -46 48 -46 74 0 84 13 71 91 l-10 59 85 0 c78 0 87
-2 112 -26 33 -31 28 -56 -12 -72 -21 -7 -30 -16 -27 -29 3 -15 16 -18 88 -21
116 -4 125 -1 156 59 21 43 24 58 18 93 -10 51 -6 93 12 128 21 41 17 89 -13
149 -58 112 -170 142 -358 95 l-100 -25 -47 52 c-26 29 -50 62 -54 75 -6 22
-32 42 -53 42 -6 0 -19 -9 -29 -20z m101 -122 c68 -78 70 -78 184 -47 183 51
291 17 332 -101 10 -30 10 -36 -5 -45 -10 -5 -31 -22 -48 -37 -29 -25 -31 -31
-32 -100 0 -82 -18 -148 -40 -148 -10 0 -12 8 -7 31 5 26 0 36 -33 70 l-38 39
-118 0 c-135 0 -128 6 -109 -92 4 -27 6 -48 2 -48 -3 0 -19 32 -36 71 -16 39
-42 84 -57 102 -16 17 -49 66 -74 109 -51 87 -65 98 -123 98 -28 0 -48 7 -61
20 -22 22 -26 40 -10 40 17 0 11 38 -7 43 -31 7 56 39 126 47 44 4 68 12 75
23 8 12 12 13 15 5 2 -7 31 -43 64 -80z m491 -305 c-3 -27 -1 -59 4 -73 7 -19
5 -34 -9 -62 -24 -48 -43 -50 -23 -3 10 24 12 51 8 88 -4 34 -2 62 5 75 17 33
21 27 15 -25z m-519 -111 c-9 -28 -20 -54 -26 -58 -7 -4 -9 0 -6 12 3 11 9 43
12 73 6 45 9 51 21 39 12 -12 12 -21 -1 -66z"/>
<path d="M217 734 c-14 -15 -6 -34 14 -34 14 0 19 5 17 17 -3 18 -20 27 -31
17z"/>
</g>
</svg>
